{
	"asset":{
		"generator":"Khronos glTF Blender I/O v4.1.63",
		"version":"2.0"
	},
	"scene":0,
	"scenes":[
		{
			"name":"Scene",
			"nodes":[
				0
			]
		}
	],
	"nodes":[
		{
			"mesh":0,
			"name":"happy_vrip",
			"rotation":[
				0.7071068286895752,
				0,
				0,
				0.7071068286895752
			],
			"scale":[
				36.06821060180664,
				36.06821060180664,
				36.06821060180664
			],
			"translation":[
				0,
				-1.8200000524520874,
				0
			]
		}
	],
	"meshes":[
		{
			"name":"happy_vrip",
			"primitives":[
				{
					"attributes":{
						"POSITION":0,
						"NORMAL":1
					},
					"indices":2
				}
			]
		}
	],
	"accessors":[
		{
			"bufferView":0,
			"componentType":5126,
			"count":3260364,
			"max":[
				0.03522169962525368,
				0.034018900245428085,
				-0.04975710064172745
			],
			"min":[
				-0.046100299805402756,
				-0.047398898750543594,
				-0.2477799952030182
			],
			"type":"VEC3"
		},
		{
			"bufferView":1,
			"componentType":5126,
			"count":3260364,
			"type":"VEC3"
		},
		{
			"bufferView":2,
			"componentType":5125,
			"count":3263148,
			"type":"SCALAR"
		}
	],
	"bufferViews":[
		{
			"buffer":0,
			"byteLength":39124368,
			"byteOffset":0,
			"target":34962
		},
		{
			"buffer":0,
			"byteLength":39124368,
			"byteOffset":39124368,
			"target":34962
		},
		{
			"buffer":0,
			"byteLength":13052592,
			"byteOffset":78248736,
			"target":34963
		}
	],
	"buffers":[
		{
			"byteLength":91301328,
			"uri":"Buddhav2.bin"
		}
	]
}
